<svg width="219" height="219" viewBox="0 0 219 219" fill="none" xmlns="http://www.w3.org/2000/svg">
<path d="M138.75 0C176.462 0 195.318 9.15527e-05 207.034 11.7158C218.75 23.4315 218.75 42.2876 218.75 80V86.2295C205.836 97.9054 192.403 108.929 178.241 118.965C162.875 129.403 143.184 142.148 128.676 139.984C123.687 139.305 124.04 130.221 127.064 121.544C129.846 113.312 134.131 105.159 138.903 97.209C142.887 92.8013 146.859 88.3524 150.857 83.7412C151.638 82.8333 152.424 81.918 153.301 80.8633C153.404 80.7382 153.501 80.6194 153.593 80.5068C153.677 80.4031 153.855 80.187 153.969 80.0439C154.031 79.9665 154.09 79.8904 154.148 79.8154C154.22 79.7235 154.219 79.725 154.393 79.5C154.54 79.3008 154.659 79.1695 155.003 78.6191C155.048 78.5451 155.099 78.4592 155.157 78.3545C155.187 78.3021 155.218 78.2448 155.252 78.1807C155.269 78.1487 155.24 78.2032 155.304 78.0811C155.353 77.985 155.409 77.8728 155.47 77.7383C155.591 77.4621 155.746 77.113 155.917 76.4639C156.053 75.8037 156.376 74.8383 155.966 72.8174C155.74 70.8175 153.048 67.5896 150.545 67.1162C148.128 66.5076 146.921 66.9813 146.168 67.168C145.413 67.4072 145.033 67.6157 144.733 67.7744C144.162 68.0933 143.946 68.2681 143.753 68.4092C143.595 68.5289 143.476 68.6292 143.46 68.6426C143.324 68.7564 143.231 68.8406 143.148 68.916C142.487 69.5433 142.444 69.624 142.126 69.96C141.851 70.2587 141.693 70.4398 141.447 70.7148C140.954 71.2744 140.476 71.8255 140.011 72.3711C139.751 72.6433 139.494 72.9161 139.237 73.1836C132.635 80.0377 125.862 86.7391 119.052 93.4531C105.373 106.912 91.6166 120.156 77.5928 133.566C66.0177 144.543 53.8956 155.577 41.6523 163.538C40.8047 164.079 39.9104 164.617 39.0186 165.129C39.6848 162.464 40.6035 159.581 41.5859 156.851C52.3169 128.499 69.3092 100.679 86.5742 73.9395C92.0808 65.5078 97.6208 57.3488 103.41 49.0811C105.861 45.5828 106.789 41.2856 105.935 37.1006C105.084 32.918 102.521 29.1893 98.8643 26.7705C95.2077 24.3517 90.7722 23.4513 86.5898 24.3047C82.4044 25.1561 78.8131 27.6912 76.5527 31.3154C71.0276 40.1566 65.7629 48.8846 60.5244 57.9043C44.0603 86.7876 28.2089 115.408 17.4043 148.976C16.1837 153.093 14.9893 157.595 14.21 162.519C13.7344 167.698 12.0222 172.275 15.8379 181.872C16.964 184.238 18.9711 187.008 21.9365 188.967C24.7918 190.899 28.1468 191.712 30.6406 191.846C35.6859 192.057 38.7258 190.906 41.6201 189.826C46.8863 187.679 50.965 184.935 54.4902 182.443C68.9834 171.809 80.4866 159.895 91.9805 147.849C99.1976 140.186 106.336 132.571 113.433 124.938C112.926 128.075 112.712 131.346 113.049 134.902C113.154 140.962 118.64 149.623 126.006 150.69C151.665 151.981 166.636 136.647 182.933 125.312C195.564 115.314 207.427 104.628 218.75 93.459V138.75C218.75 176.462 218.75 195.318 207.034 207.034C195.318 218.75 176.462 218.75 138.75 218.75H80C42.2876 218.75 23.4315 218.75 11.7158 207.034C9.15527e-05 195.318 0 176.462 0 138.75V80C0 42.2876 9.25064e-05 23.4315 11.7158 11.7158C23.4315 9.15527e-05 42.2876 0 80 0H138.75Z" fill="white"/>
<path d="M32.3994 168.092C32.2631 168.12 32.1524 168.14 32.082 168.144C31.8625 168.168 31.8723 168.087 32.3896 168.091C32.3926 168.091 32.3964 168.092 32.3994 168.092Z" fill="white"/>
<path d="M153.486 80.3496C153.456 80.3781 153.411 80.4153 153.339 80.4775C153.384 80.4342 153.424 80.3972 153.457 80.3672C153.496 80.3318 153.623 80.2175 153.486 80.3496Z" fill="white"/>
</svg>
